#N canvas 589 165 586 789 16;
#X obj 133 232 dac~;
#X obj 120 266 writesf~ 2;
#X msg 308 257 stop;
#X obj 110 310 bng 15 250 50 0 empty \$0-audio-record_button rec 17
7 0 10 -262144 -1 -1;
#X obj 170 310 bng 15 250 50 0 empty empty stop 17 7 0 10 -262144 -1
-1;
#X obj 110 535 savepanel;
#X msg 308 204 open -bytes 4 \$1 \, start, f 17;
#X obj 157 637 pack f \$0;
#X msg 197 603 0, f 1;
#X obj 110 569 t s b;
#X msg 157 603 13, f 2;
#X msg 157 671 \; \$2-audio-record_button color \$1;
#N canvas 676 399 452 448 meter 0;
#X obj 119 104 env~ 65536;
#X obj 103 256 vu 9 160 empty right -1 -8 0 8 -13330 -86853 1 0;
#X obj 102 36 inlet~ signal;
#X obj 131 242 bng 8 250 50 0 empty empty empty 17 7 0 10 -4034 -258113
-1;
#X obj 119 138 - 97;
#X obj 102 206 - 97;
#X obj 102 172 env~ 1024;
#X obj 131 70 threshold~ 0.999999 50 0 10;
#X connect 0 0 4 0;
#X connect 2 0 0 0;
#X connect 2 0 6 0;
#X connect 2 0 7 0;
#X connect 4 0 1 1;
#X connect 5 0 1 0;
#X connect 6 0 5 0;
#X connect 7 0 3 0;
#X coords 0 -1 1 1 41 180 2 100 240;
#X restore 170 335 pd meter;
#X obj 153 337 vsl 15 175 0 1 0 0 empty empty empty 0 -9 0 10 -262144
-1 -1 0 1;
#X obj 110 204 *~;
#X obj 234 204 *~;
#X obj 137 170 line~;
#X msg 137 136 \$1 1000;
#X obj 110 102 inlet~ left;
#X obj 234 102 inlet~ right;
#N canvas 676 399 470 448 meter 0;
#X obj 119 104 env~ 65536;
#X obj 103 256 vu 9 160 empty left -1 -8 0 8 -13330 -86853 1 0;
#X obj 102 36 inlet~ signal;
#X obj 131 242 bng 8 250 50 0 empty empty empty 17 7 0 10 -4034 -258113
-1;
#X obj 119 138 - 97;
#X obj 102 206 - 97;
#X obj 102 172 env~ 1024;
#X obj 131 70 threshold~ 0.999999 50 0 10;
#X connect 0 0 4 0;
#X connect 2 0 0 0;
#X connect 2 0 6 0;
#X connect 2 0 7 0;
#X connect 4 0 1 1;
#X connect 5 0 1 0;
#X connect 6 0 5 0;
#X connect 7 0 3 0;
#X coords 0 -1 1 1 41 180 2 100 240;
#X restore 110 335 pd meter;
#X connect 2 0 1 0;
#X connect 3 0 5 0;
#X connect 4 0 2 0;
#X connect 4 0 8 0;
#X connect 5 0 9 0;
#X connect 6 0 1 0;
#X connect 7 0 11 0;
#X connect 8 0 7 0;
#X connect 9 0 6 0;
#X connect 9 1 10 0;
#X connect 10 0 7 0;
#X connect 13 0 17 0;
#X connect 14 0 0 0;
#X connect 14 0 1 0;
#X connect 14 0 20 0;
#X connect 15 0 0 1;
#X connect 15 0 12 0;
#X connect 15 0 1 1;
#X connect 16 0 14 1;
#X connect 16 0 15 1;
#X connect 17 0 16 0;
#X connect 18 0 14 0;
#X connect 19 0 15 0;
#X coords 0 -1 1 1 121 225 2 100 300;
